RBDS026runT35_grf
version=1
nRows=21
nColumns=19
inDegrees=no
endheader
time	ground_force_r_vx	ground_force_r_vy	ground_force_r_vz	ground_force_r_px	ground_force_r_py	ground_force_r_pz	ground_force_r_mx	ground_force_r_my	ground_force_r_mz	ground_force_l_vx	ground_force_l_vy	ground_force_l_vz	ground_force_l_px	ground_force_l_py	ground_force_l_pz	ground_force_l_mx	ground_force_l_my	ground_force_l_mz
     14.99900000	      0.00000000	      0.00000000	      0.00000000	      0.00000000	      0.00000000	      0.00000000	      0.00000000	      0.00000000	      0.00000000	   -209.85865229	   1365.33868731	      6.24427703	      2.28088877	      0.00000000	      0.96054318	      0.00000000	      7.53677859	     -0.00000000
     15.00000000	      0.00000000	      0.00000000	      0.00000000	      0.00000000	      0.00000000	      0.00000000	      0.00000000	      0.00000000	      0.00000000	   -213.51900669	   1386.32043930	      6.10914000	      2.27983039	      0.00000000	      0.96040818	      0.00000000	      7.78348647	     -0.00000000
     15.00100000	      0.00000000	      0.00000000	      0.00000000	      0.00000000	      0.00000000	      0.00000000	      0.00000000	      0.00000000	      0.00000000	   -216.78732896	   1406.08051594	      6.09022404	      2.27855975	      0.00000000	      0.96027488	      0.00000000	      8.04568850	     -0.00000000
     15.00200000	      0.00000000	      0.00000000	      0.00000000	      0.00000000	      0.00000000	      0.00000000	      0.00000000	      0.00000000	      0.00000000	   -220.05565124	   1425.84059257	      6.07130807	      2.27728911	      0.00000000	      0.96014158	      0.00000000	      8.30789052	     -0.00000000
     15.00300000	      0.00000000	      0.00000000	      0.00000000	      0.00000000	      0.00000000	      0.00000000	      0.00000000	      0.00000000	      0.00000000	   -223.32397351	   1445.60066921	      6.05239211	      2.27601847	      0.00000000	      0.96000828	      0.00000000	      8.57009255	     -0.00000000
     15.00400000	      0.00000000	      0.00000000	      0.00000000	      0.00000000	      0.00000000	      0.00000000	      0.00000000	      0.00000000	      0.00000000	   -226.27958426	   1464.59115341	      6.13517384	      2.27461039	      0.00000000	      0.95987359	      0.00000000	      8.84015202	     -0.00000000
     15.00500000	      0.00000000	      0.00000000	      0.00000000	      0.00000000	      0.00000000	      0.00000000	      0.00000000	      0.00000000	      0.00000000	   -229.07883924	   1483.19684137	      6.26880441	      2.27313358	      0.00000000	      0.95973820	      0.00000000	      9.11414022	     -0.00000000
     15.00600000	      0.00000000	      0.00000000	      0.00000000	      0.00000000	      0.00000000	      0.00000000	      0.00000000	      0.00000000	      0.00000000	   -231.87809423	   1501.80252934	      6.40243499	      2.27165678	      0.00000000	      0.95960282	      0.00000000	      9.38812843	     -0.00000000
     15.00700000	      0.00000000	      0.00000000	      0.00000000	      0.00000000	      0.00000000	      0.00000000	      0.00000000	      0.00000000	      0.00000000	   -234.49744121	   1520.04608169	      6.59619415	      2.27011418	      0.00000000	      0.95946561	      0.00000000	      9.66459586	     -0.00000000
     15.00800000	      0.00000000	      0.00000000	      0.00000000	      0.00000000	      0.00000000	      0.00000000	      0.00000000	      0.00000000	      0.00000000	   -236.75697218	   1537.56536280	      6.91021049	      2.26843999	      0.00000000	      0.95932474	      0.00000000	      9.94602176	     -0.00000000
     15.00900000	      0.00000000	      0.00000000	      0.00000000	      0.00000000	      0.00000000	      0.00000000	      0.00000000	      0.00000000	      0.00000000	   -239.01650314	   1555.08464390	      7.22422682	      2.26676580	      0.00000000	      0.95918386	      0.00000000	     10.22744766	     -0.00000000
     15.01000000	      0.00000000	      0.00000000	      0.00000000	      0.00000000	      0.00000000	      0.00000000	      0.00000000	      0.00000000	      0.00000000	   -241.27603411	   1572.60392501	      7.53824315	      2.26509161	      0.00000000	      0.95904299	      0.00000000	     10.50887355	     -0.00000000
     15.01100000	      0.00000000	      0.00000000	      0.00000000	      0.00000000	      0.00000000	      0.00000000	      0.00000000	      0.00000000	      0.00000000	   -242.93425905	   1589.09942309	      8.05073743	      2.26323120	      0.00000000	      0.95889374	      0.00000000	     10.79290587	      0.00000000
     15.01200000	      0.00000000	      0.00000000	      0.00000000	      0.00000000	      0.00000000	      0.00000000	      0.00000000	      0.00000000	      0.00000000	   -244.59248399	   1605.59492117	      8.56323170	      2.26137079	      0.00000000	      0.95874448	      0.00000000	     11.07693819	      0.00000000
     15.01300000	      0.00000000	      0.00000000	      0.00000000	      0.00000000	      0.00000000	      0.00000000	      0.00000000	      0.00000000	      0.00000000	   -246.25070893	   1622.09041926	      9.07572598	      2.25951039	      0.00000000	      0.95859522	      0.00000000	     11.36097051	      0.00000000
     15.01400000	      0.00000000	      0.00000000	      0.00000000	      0.00000000	      0.00000000	      0.00000000	      0.00000000	      0.00000000	      0.00000000	   -247.47457212	   1637.93802324	      9.72573184	      2.25753466	      0.00000000	      0.95843885	      0.00000000	     11.64332149	      0.00000000
     15.01500000	      0.00000000	      0.00000000	      0.00000000	      0.00000000	      0.00000000	      0.00000000	      0.00000000	      0.00000000	      0.00000000	   -248.48125444	   1653.46168016	     10.44449349	      2.25550127	      0.00000000	      0.95827891	      0.00000000	     11.92483179	      0.00000000
     15.01600000	      0.00000000	      0.00000000	      0.00000000	      0.00000000	      0.00000000	      0.00000000	      0.00000000	      0.00000000	      0.00000000	   -249.48793676	   1668.98533709	     11.16325514	      2.25346787	      0.00000000	      0.95811897	      0.00000000	     12.20634209	      0.00000000
     15.01700000	      0.00000000	      0.00000000	      0.00000000	      0.00000000	      0.00000000	      0.00000000	      0.00000000	      0.00000000	      0.00000000	   -250.26504549	   1684.19737808	     11.94996387	      2.25138180	      0.00000000	      0.95795493	      0.00000000	     12.48527178	      0.00000000
     15.01800000	      0.00000000	      0.00000000	      0.00000000	      0.00000000	      0.00000000	      0.00000000	      0.00000000	      0.00000000	      0.00000000	   -250.58300708	   1698.78618719	     12.87256677	      2.24919036	      0.00000000	      0.95778267	      0.00000000	     12.75904024	      0.00000000
     15.01900000	      0.00000000	      0.00000000	      0.00000000	      0.00000000	      0.00000000	      0.00000000	      0.00000000	      0.00000000	      0.00000000	   -250.90096866	   1713.37499631	     13.79516967	      2.24699892	      0.00000000	      0.95761041	      0.00000000	     13.03280871	      0.00000000
